# Blender v2.78 (sub 0) OBJ File: 'jumper.blend'
# www.blender.org
o Cone
v -0.043705 0.976055 -0.710719
v 0.393230 0.210188 0.353925
v 0.233285 0.948774 -0.710719
v 0.333142 0.918483 -0.710719
v 0.578607 0.787279 -0.710719
v 0.659271 0.721080 -0.710719
v 0.835842 0.505927 -0.710719
v 0.885032 0.413899 -0.710719
v 0.965827 0.147553 -0.710719
v 0.976055 0.043706 -0.710719
v 0.948774 -0.233285 -0.710719
v 0.918483 -0.333141 -0.710719
v 0.787279 -0.578607 -0.710719
v 0.721080 -0.659271 -0.710719
v 0.505927 -0.835842 -0.710719
v 0.413899 -0.885032 -0.710719
v 0.147553 -0.965827 -0.710719
v 0.043705 -0.976055 -0.710719
v -0.233285 -0.948774 -0.710719
v -0.333142 -0.918483 -0.710719
v -0.578607 -0.787278 -0.710719
v -0.659271 -0.721079 -0.710719
v -0.835842 -0.505927 -0.710719
v -0.885032 -0.413898 -0.710719
v -0.965827 -0.147552 -0.710719
v -0.976055 -0.043705 -0.710719
v -0.948774 0.233286 -0.710719
v -0.918482 0.333143 -0.710719
v -0.787278 0.578608 -0.710719
v -0.721079 0.659272 -0.710719
v -0.505926 0.835842 -0.710719
v -0.413897 0.885033 -0.710719
v -0.147552 0.965827 -0.710719
v 0.555570 0.831470 -0.750000
v 0.382683 0.923880 -0.750000
v 0.000000 1.000000 -0.750000
v 0.195090 0.980785 -0.750000
v -0.195089 0.980786 -0.750000
v 0.707107 0.707107 -0.750000
v -0.382682 0.923880 -0.750000
v -0.555569 0.831470 -0.750000
v 0.831470 0.555570 -0.750000
v 0.923880 0.382683 -0.750000
v -0.707106 0.707108 -0.750000
v -0.831469 0.555571 -0.750000
v 0.980785 0.195090 -0.750000
v 1.000000 0.000000 -0.750000
v -0.923879 0.382684 -0.750000
v 0.000000 0.000000 1.250000
v 0.282864 0.344672 0.353921
v 0.129438 0.426699 0.353886
v -0.043708 0.443765 0.353860
v -0.210197 0.393251 0.353880
v -0.344699 0.282885 0.353852
v -0.426703 0.129439 0.353878
v -0.443745 -0.043704 0.353900
v -0.393248 -0.210195 0.353887
v -0.282872 -0.344680 0.353897
v -0.129437 -0.426693 0.353897
v 0.043705 -0.443749 0.353893
v 0.210194 -0.393245 0.353893
v 0.344690 -0.282879 0.353875
v 0.426698 -0.129437 0.353888
v 0.443748 0.043705 0.353894
v -0.980785 0.195091 -0.750000
v 0.980785 -0.195090 -0.750000
v 0.923880 -0.382683 -0.750000
v -1.000000 0.000001 -0.750000
v -0.980785 -0.195089 -0.750000
v 0.831470 -0.555570 -0.750000
v 0.707107 -0.707107 -0.750000
v -0.923880 -0.382683 -0.750000
v -0.831470 -0.555570 -0.750000
v 0.555570 -0.831470 -0.750000
v 0.382683 -0.923880 -0.750000
v -0.707107 -0.707106 -0.750000
v -0.555571 -0.831469 -0.750000
v 0.195090 -0.980785 -0.750000
v -0.000000 -1.000000 -0.750000
v -0.382684 -0.923879 -0.750000
v -0.195091 -0.980785 -0.750000
v 0.596499 0.726838 0.223003
v 0.766356 0.981044 -0.388462
v 0.272949 0.899793 0.222978
v 0.389944 1.182243 -0.388467
v -0.092164 1.241478 -0.388470
v -0.092165 0.935762 0.222960
v 0.332593 1.199641 -0.388467
v -0.151807 1.235603 -0.388470
v 0.812685 0.943024 -0.388462
v -0.443246 0.829256 0.222974
v -0.560239 1.111706 -0.388467
v -0.613095 1.083454 -0.388467
v 1.083450 0.613095 -0.388461
v 1.111702 0.560239 -0.388461
v -0.726856 0.596515 0.222954
v -0.943026 0.812689 -0.388471
v -0.981047 0.766361 -0.388471
v 1.235601 0.151807 -0.388466
v 1.241475 0.092164 -0.388466
v -0.899795 0.272951 0.222973
v -1.182243 0.389946 -0.388468
v -1.199641 0.332594 -0.388468
v 1.199641 -0.332592 -0.388466
v 1.182243 -0.389944 -0.388466
v -0.935748 -0.092162 0.222989
v -1.241475 -0.092162 -0.388465
v -1.235600 -0.151806 -0.388465
v 0.981047 -0.766359 -0.388468
v 0.943026 -0.812687 -0.388468
v -0.829254 -0.443245 0.222979
v -1.111705 -0.560239 -0.388467
v -1.083453 -0.613095 -0.388467
v 0.613095 -1.083452 -0.388466
v 0.560240 -1.111704 -0.388466
v -0.596506 -0.726843 0.222986
v -0.812687 -0.943024 -0.388465
v -0.766358 -0.981045 -0.388465
v 0.151807 -1.235601 -0.388466
v 0.092163 -1.241475 -0.388466
v -0.272949 -0.899788 0.222986
v -0.389945 -1.182242 -0.388465
v -0.332593 -1.199640 -0.388465
v 0.092163 -0.935751 0.222983
v 0.443244 -0.829252 0.222983
v 0.726851 -0.596510 0.222970
v 0.899792 -0.272949 0.222980
v 0.935750 0.092163 0.222984
v 0.829241 0.443240 0.223006
vt 0.4915 0.0305
vt 0.5997 0.3660
vt 0.4624 0.0412
vt 0.6732 0.2118
vt 0.6138 0.3380
vt 0.6138 0.2415
vt 0.4348 0.0541
vt 0.4096 0.0686
vt 0.9277 0.8942
vt 0.9147 0.9366
vt 0.9112 0.8942
vt 0.3879 0.0841
vt 0.3705 0.1000
vt 0.8237 0.9428
vt 0.8107 0.9004
vt 0.8202 0.9004
vt 0.5584 0.4083
vt 0.5817 0.7602
vt 0.5321 0.4113
vt 0.3505 0.5523
vt 0.3087 0.4178
vt 0.3505 0.3645
vt 0.5037 0.4172
vt 0.4744 0.4256
vt 0.5339 0.7989
vt 0.4773 0.9230
vt 0.4773 0.8335
vt 0.4453 0.4363
vt 0.4176 0.4489
vt 0.9967 0.4047
vt 0.9424 0.5346
vt 0.9424 0.4277
vt 0.3922 0.4628
vt 0.3702 0.4776
vt 0.8792 0.8953
vt 0.8662 0.8528
vt 0.8757 0.8528
vt 0.7708 0.4086
vt 0.7975 0.7603
vt 0.7419 0.4121
vt 0.9903 0.8024
vt 0.9421 0.6725
vt 0.9903 0.6157
vt 0.7121 0.4183
vt 0.6824 0.4271
vt 0.7637 0.9499
vt 0.7134 0.8211
vt 0.7637 0.7983
vt 0.6539 0.4381
vt 0.6278 0.4508
vt 0.9297 0.8890
vt 0.9427 0.8466
vt 0.9462 0.8890
vt 0.2263 0.3667
vt 0.2263 0.7195
vt 0.1998 0.3680
vt 0.9362 0.5973
vt 0.8880 0.7272
vt 0.8880 0.6200
vt 0.1712 0.3720
vt 0.1414 0.3785
vt 0.8607 0.8528
vt 0.8477 0.8953
vt 0.8442 0.8528
vt 0.1117 0.3873
vt 0.0831 0.3980
vt 0.9297 0.9366
vt 0.9427 0.8942
vt 0.9462 0.9366
vt 0.0569 0.4102
vt 0.0340 0.4235
vt 0.9325 0.1986
vt 0.8782 0.0686
vt 0.9325 0.0124
vt 0.5997 0.0153
vt 0.5760 0.0145
vt 0.8791 0.2274
vt 0.9358 0.3514
vt 0.8791 0.3833
vt 0.5494 0.0169
vt 0.5209 0.0223
vt 0.5817 0.8000
vt 0.5399 0.9344
vt 0.5399 0.8266
vt 0.3278 0.1303
vt 0.2224 0.3271
vt 0.1306 0.0252
vt 0.5097 0.2362
vt 0.5320 0.2234
vt 0.4442 0.0573
vt 0.5578 0.2138
vt 0.5002 0.0352
vt 0.4590 0.0505
vt 0.3969 0.0861
vt 0.4085 0.0779
vt 0.5831 0.2090
vt 0.5564 0.0232
vt 0.5641 0.4152
vt 0.5817 0.4082
vt 0.5765 0.4151
vt 0.1359 0.5900
vt 0.0152 0.4374
vt 0.0236 0.4398
vt 0.5116 0.4226
vt 0.5267 0.4195
vt 0.1563 0.5782
vt 0.0661 0.4136
vt 0.4545 0.4403
vt 0.4700 0.4346
vt 0.1816 0.5687
vt 0.1206 0.3919
vt 0.4016 0.4655
vt 0.4151 0.4581
vt 0.2080 0.5629
vt 0.1787 0.3780
vt 0.7773 0.4153
vt 0.7975 0.4080
vt 0.7915 0.4150
vt 0.7164 0.6248
vt 0.6051 0.4648
vt 0.6140 0.4675
vt 0.7204 0.4236
vt 0.7363 0.4203
vt 0.7395 0.6135
vt 0.6631 0.4419
vt 0.6782 0.4361
vt 0.7659 0.6057
vt 0.6261 0.4600
vt 0.7915 0.6026
vt 0.1939 0.3758
vt 0.5025 0.6238
vt 0.1364 0.3872
vt 0.5271 0.6127
vt 0.0801 0.4071
vt 0.5531 0.6052
vt 0.0335 0.4324
vt 0.5765 0.6025
vt 0.5705 0.0219
vt 0.5158 0.0309
vt 0.2147 0.7524
vt 0.2147 0.8601
vt 0.2054 0.7527
vt 0.7774 0.9059
vt 0.7855 0.7984
vt 0.7855 0.9061
vt 0.8945 0.9128
vt 0.8950 0.8052
vt 0.9016 0.9128
vt 0.2262 0.8642
vt 0.2330 0.7567
vt 0.2350 0.8642
vt 0.3175 0.6786
vt 0.3270 0.5716
vt 0.3270 0.6790
vt 0.7675 0.9055
vt 0.7763 0.7983
vt 0.7763 0.9061
vt 0.8038 0.7940
vt 0.8038 0.9017
vt 0.7957 0.7942
vt 0.3386 0.6790
vt 0.3479 0.5716
vt 0.3479 0.6794
vt 0.3375 0.5673
vt 0.3375 0.6750
vt 0.3281 0.5676
vt 0.7947 0.7940
vt 0.7947 0.9018
vt 0.7865 0.7944
vt 0.8757 0.7032
vt 0.8825 0.5957
vt 0.8846 0.7032
vt 0.3069 0.6786
vt 0.3164 0.5716
vt 0.3164 0.6790
vt 0.8755 0.8239
vt 0.8776 0.7163
vt 0.8844 0.8239
vt 0.9028 0.9128
vt 0.9099 0.8052
vt 0.9099 0.9128
vt 0.8857 0.9126
vt 0.8938 0.8052
vt 0.8938 0.9130
vt 0.2159 0.8641
vt 0.2252 0.7567
vt 0.2252 0.8645
vt 0.4709 0.9885
vt 0.4227 0.8586
vt 0.4709 0.8018
vt 0.8674 0.7926
vt 0.8097 0.6669
vt 0.8674 0.6107
vt 0.8422 0.8528
vt 0.8292 0.8953
vt 0.8257 0.8528
vt 0.6505 0.7992
vt 0.5938 0.9232
vt 0.5938 0.8337
vt 0.1327 0.7577
vt 0.0719 0.8811
vt 0.0719 0.7825
vt 0.2402 0.7665
vt 0.2944 0.8964
vt 0.2402 0.9527
vt 0.2161 0.9138
vt 0.2291 0.8714
vt 0.2326 0.9138
vt 0.8257 0.8053
vt 0.8387 0.8477
vt 0.8292 0.8477
vt 0.2405 0.5441
vt 0.3008 0.4174
vt 0.3008 0.5208
vt 0.8714 0.1941
vt 0.8137 0.0684
vt 0.8714 0.0122
vt 0.0645 0.9308
vt 0.0037 0.8074
vt 0.0645 0.7592
vt 0.7073 0.7994
vt 0.6570 0.9282
vt 0.6570 0.8411
vt 0.9112 0.8466
vt 0.9242 0.8890
vt 0.9147 0.8890
vt 0.2009 0.7577
vt 0.1401 0.8811
vt 0.1401 0.7825
vt 0.8674 0.4044
vt 0.8097 0.5301
vt 0.8097 0.4256
vt 0.6815 0.0101
vt 0.7418 0.1368
vt 0.6815 0.1901
vt 0.6139 0.0101
vt 0.6742 0.1368
vt 0.6139 0.1901
vt 0.8607 0.8053
vt 0.8477 0.8477
vt 0.8442 0.8053
vt 0.3071 0.7284
vt 0.3201 0.6860
vt 0.3236 0.7284
vt 0.4161 0.9680
vt 0.3567 0.8418
vt 0.4161 0.8000
vt 0.9391 0.1986
vt 0.9934 0.0686
vt 0.9934 0.1756
vt 0.9354 0.5772
vt 0.8746 0.4538
vt 0.9354 0.4055
vt 0.8722 0.3831
vt 0.8156 0.2590
vt 0.8722 0.2272
vt 0.8072 0.8528
vt 0.8202 0.8953
vt 0.8107 0.8953
vt 0.9112 0.7990
vt 0.9242 0.8414
vt 0.9147 0.8414
vt 0.8067 0.0100
vt 0.7490 0.1357
vt 0.7490 0.0312
vt 0.3489 0.7665
vt 0.3007 0.8964
vt 0.3007 0.7892
vt 0.8085 0.2140
vt 0.7491 0.3402
vt 0.7491 0.2437
vt 0.6805 0.2118
vt 0.7399 0.3380
vt 0.6805 0.3799
vt 0.3449 0.6864
vt 0.3319 0.7288
vt 0.3284 0.6864
vt 0.8072 0.8477
vt 0.8202 0.8053
vt 0.8237 0.8477
vt 0.3008 0.5643
vt 0.2405 0.6910
vt 0.2405 0.5876
vt 0.6732 0.3799
vt 0.9242 0.9366
vt 0.8072 0.9428
vt 0.3087 0.5257
vt 0.5339 0.9548
vt 0.9967 0.5909
vt 0.8627 0.8953
vt 0.9421 0.7797
vt 0.7134 0.9082
vt 0.9332 0.8466
vt 0.9362 0.7840
vt 0.8572 0.8953
vt 0.9332 0.8942
vt 0.8782 0.1756
vt 0.9358 0.2619
vt 0.5817 0.9877
vt 0.0252 0.2219
vt 0.0192 0.1916
vt 0.0192 0.1607
vt 0.0252 0.1303
vt 0.0371 0.1018
vt 0.0543 0.0761
vt 0.0762 0.0542
vt 0.1020 0.0370
vt 0.1610 0.0191
vt 0.1920 0.0191
vt 0.2224 0.0252
vt 0.2511 0.0370
vt 0.2768 0.0542
vt 0.2988 0.0761
vt 0.3160 0.1018
vt 0.3339 0.1607
vt 0.3339 0.1916
vt 0.3278 0.2219
vt 0.3160 0.2505
vt 0.2988 0.2762
vt 0.2768 0.2981
vt 0.2511 0.3152
vt 0.1920 0.3331
vt 0.1610 0.3331
vt 0.1306 0.3271
vt 0.1020 0.3152
vt 0.0762 0.2981
vt 0.0543 0.2762
vt 0.0371 0.2505
vt 0.4227 0.9658
vt 0.8097 0.7714
vt 0.8387 0.8953
vt 0.6505 0.9551
vt 0.1327 0.9294
vt 0.2944 0.7895
vt 0.2196 0.8714
vt 0.8422 0.8053
vt 0.2405 0.3641
vt 0.8137 0.1729
vt 0.0037 0.9060
vt 0.7073 0.9511
vt 0.9277 0.8466
vt 0.2009 0.9294
vt 0.8674 0.5864
vt 0.7418 0.0334
vt 0.6742 0.0334
vt 0.8572 0.8477
vt 0.3107 0.6860
vt 0.3567 0.9383
vt 0.9391 0.0124
vt 0.8746 0.5524
vt 0.8156 0.3486
vt 0.8237 0.8528
vt 0.9277 0.7990
vt 0.8067 0.1920
vt 0.3489 0.9532
vt 0.8085 0.3821
vt 0.7399 0.2415
vt 0.3414 0.7288
vt 0.8107 0.8053
vt 0.3008 0.7443
vn 0.0878 0.8910 0.4455
vn 0.7622 -0.6448 0.0563
vn 0.4220 0.7896 0.4455
vn -0.7641 -0.0753 -0.6407
vn 0.6921 0.5680 0.4455
vn 0.6772 0.3619 -0.6407
vn 0.8567 0.2599 0.4455
vn -0.7812 0.6218 0.0563
vn 0.8910 -0.0878 0.4455
vn 0.6448 0.7622 0.0563
vn 0.7896 -0.4220 0.4455
vn -0.8875 -0.4574 0.0563
vn 0.5680 -0.6921 0.4455
vn 0.3619 -0.6772 -0.6407
vn 0.2599 -0.8567 0.4455
vn -0.6218 -0.7812 0.0564
vn -0.0878 -0.8910 0.4455
vn 0.8734 0.4838 0.0564
vn -0.4220 -0.7896 0.4455
vn -0.0753 0.7641 -0.6407
vn -0.6921 -0.5680 0.4455
vn 0.4574 -0.8875 0.0564
vn -0.8567 -0.2599 0.4455
vn -0.6772 -0.3619 -0.6407
vn -0.8910 0.0878 0.4455
vn 0.4871 0.5935 -0.6407
vn -0.7896 0.4220 0.4455
vn 0.7812 -0.6218 0.0563
vn -0.5680 0.6921 0.4455
vn -0.4838 0.8734 0.0564
vn -0.2599 0.8567 0.4455
vn 0.8875 0.4574 0.0563
vn 0.0000 0.0000 -1.0000
vn 0.5680 0.6921 0.4455
vn 0.2599 0.8567 0.4455
vn -0.0878 0.8910 0.4455
vn -0.4220 0.7896 0.4455
vn 0.7896 0.4220 0.4455
vn -0.6921 0.5680 0.4455
vn 0.8910 0.0878 0.4455
vn -0.8567 0.2599 0.4455
vn 0.8567 -0.2599 0.4455
vn -0.8910 -0.0878 0.4455
vn -0.8910 -0.0877 0.4455
vn 0.6921 -0.5680 0.4455
vn -0.7896 -0.4220 0.4455
vn 0.4220 -0.7896 0.4455
vn -0.5680 -0.6921 0.4455
vn 0.0878 -0.8910 0.4455
vn -0.2599 -0.8567 0.4455
vn 0.8910 0.0877 0.4455
vn 0.6218 0.7812 0.0564
vn -0.2755 -0.9596 0.0563
vn 0.0753 -0.7641 -0.6407
vn -0.6448 -0.7622 0.0563
vn 0.3041 0.9510 0.0564
vn -0.9596 0.2755 0.0563
vn 0.7641 0.0753 -0.6407
vn -0.7348 0.2229 -0.6407
vn 0.9510 -0.3041 0.0563
vn 0.2755 0.9596 0.0564
vn 0.1127 -0.9920 0.0563
vn -0.7622 0.6448 0.0563
vn -0.2229 -0.7348 -0.6407
vn -0.3041 -0.9510 0.0564
vn -0.0830 0.9950 0.0563
vn 0.9596 -0.2755 0.0564
vn -0.9920 -0.1127 0.0564
vn 0.7348 -0.2229 -0.6407
vn -0.5935 0.4871 -0.6407
vn 0.9920 0.1127 0.0564
vn 0.9950 0.0830 0.0563
vn -0.1127 0.9920 0.0563
vn 0.4838 -0.8734 0.0563
vn 0.2229 0.7348 -0.6407
vn -0.4871 -0.5935 -0.6407
vn 0.0830 -0.9950 0.0563
vn -0.4574 0.8875 0.0563
vn -0.9510 0.3041 0.0563
vn -0.8734 -0.4838 0.0563
vn 0.5935 -0.4871 -0.6407
vn -0.3619 0.6772 -0.6407
vn -0.9950 -0.0830 0.0563
vn 0.7622 -0.6448 0.0564
vn 0.3041 0.9510 0.0563
vn -0.7347 0.2229 -0.6407
vn -0.3619 0.6771 -0.6407
s off
f 36/1/1 49/2/1 37/3/1
f 21/4/2 116/5/2 118/6/2
f 35/7/3 49/2/3 34/8/3
f 25/9/4 107/10/4 26/11/4
f 39/12/5 49/2/5 42/13/5
f 8/14/6 94/15/6 95/16/6
f 43/17/7 49/18/7 46/19/7
f 22/20/8 116/21/8 58/22/8
f 47/23/9 49/18/9 66/24/9
f 13/25/10 126/26/10 109/27/10
f 67/28/11 49/18/11 70/29/11
f 31/30/12 91/31/12 93/32/12
f 71/33/13 49/18/13 74/34/13
f 16/35/14 114/36/14 115/37/14
f 75/38/15 49/39/15 78/40/15
f 14/41/16 126/42/16 62/43/16
f 79/44/17 49/39/17 81/45/17
f 32/46/18 91/47/18 53/48/18
f 80/49/19 49/39/19 77/50/19
f 33/51/20 86/52/20 1/53/20
f 76/54/21 49/55/21 73/56/21
f 23/57/22 111/58/22 113/59/22
f 72/60/23 49/55/23 69/61/23
f 23/62/24 112/63/24 24/64/24
f 68/65/25 49/55/25 65/66/25
f 5/67/26 90/68/26 6/69/26
f 48/70/27 49/55/27 45/71/27
f 6/72/28 82/73/28 50/74/28
f 44/75/29 49/2/29 41/76/29
f 24/77/30 111/78/30 57/79/30
f 40/80/31 49/2/31 38/81/31
f 15/82/32 125/83/32 114/84/32
f 78/85/33 69/86/33 46/87/33
f 50/88/34 34/8/34 49/2/34
f 51/89/35 35/7/35 4/90/35
f 52/91/36 36/1/36 1/92/36
f 3/93/35 35/7/35 37/3/35
f 51/89/35 37/3/35 49/2/35
f 52/91/36 38/81/36 49/2/36
f 6/94/34 34/8/34 5/95/34
f 53/96/37 40/80/37 32/97/37
f 53/96/37 41/76/37 49/2/37
f 8/98/38 42/99/38 7/100/38
f 54/101/39 44/102/39 30/103/39
f 54/101/39 45/71/39 49/55/39
f 10/104/40 46/19/40 9/105/40
f 55/106/41 48/70/41 28/107/41
f 55/106/41 65/66/41 49/55/41
f 12/108/42 66/24/42 11/109/42
f 56/110/43 68/65/43 26/111/43
f 56/110/44 69/61/44 49/55/44
f 14/112/45 70/29/45 13/113/45
f 57/114/46 72/60/46 24/115/46
f 57/114/46 73/56/46 49/55/46
f 16/116/47 74/117/47 15/118/47
f 58/119/48 76/120/48 22/121/48
f 58/119/48 77/50/48 49/39/48
f 18/122/49 78/40/49 17/123/49
f 59/124/50 80/49/50 20/125/50
f 59/124/50 81/45/50 49/39/50
f 20/125/50 81/45/50 19/126/50
f 60/127/49 79/44/49 18/122/49
f 60/127/49 78/40/49 49/39/49
f 21/128/48 76/120/48 77/50/48
f 61/129/47 75/38/47 16/116/47
f 61/129/47 74/117/47 49/39/47
f 24/115/46 73/56/46 23/130/46
f 62/131/45 71/33/45 14/112/45
f 62/131/45 70/29/45 49/18/45
f 26/111/43 69/61/43 25/132/43
f 63/133/42 67/28/42 12/108/42
f 63/133/42 66/24/42 49/18/42
f 28/107/41 65/66/41 27/134/41
f 64/135/51 47/23/51 10/104/51
f 64/135/40 46/19/40 49/18/40
f 29/136/39 44/102/39 45/71/39
f 2/137/38 43/17/38 8/98/38
f 2/137/38 42/99/38 49/18/38
f 32/97/37 41/76/37 31/138/37
f 50/88/34 39/12/34 6/94/34
f 33/139/36 36/1/36 38/81/36
f 88/140/35 84/141/35 85/142/35
f 83/143/34 82/144/34 90/145/34
f 94/146/38 129/147/38 95/148/38
f 99/149/40 128/150/40 100/151/40
f 104/152/42 127/153/42 105/154/42
f 109/155/45 126/156/45 110/157/45
f 114/158/47 125/159/47 115/160/47
f 119/161/49 124/162/49 120/163/49
f 123/164/50 121/165/50 122/166/50
f 118/167/48 116/168/48 117/169/48
f 113/170/46 111/171/46 112/172/46
f 108/173/44 106/174/44 107/175/44
f 103/176/41 101/177/41 102/178/41
f 98/179/39 96/180/39 97/181/39
f 93/182/37 91/183/37 92/184/37
f 89/185/36 87/186/36 86/187/36
f 30/188/52 96/189/52 54/190/52
f 12/191/53 127/192/53 63/193/53
f 17/194/54 120/195/54 18/196/54
f 29/197/55 96/198/55 98/199/55
f 11/200/56 127/201/56 104/202/56
f 20/203/57 121/204/57 59/205/57
f 9/206/58 100/207/58 10/208/58
f 28/209/59 103/210/59 102/211/59
f 19/212/60 121/213/60 123/214/60
f 28/215/61 101/216/61 55/217/61
f 10/218/62 128/219/62 64/220/62
f 5/221/63 82/222/63 83/223/63
f 20/224/64 123/225/64 122/226/64
f 27/227/65 101/228/65 103/229/65
f 9/230/66 128/231/66 99/232/66
f 4/233/67 84/234/67 51/235/67
f 18/236/68 124/237/68 60/238/68
f 11/239/69 105/240/69 12/241/69
f 29/242/70 97/243/70 30/244/70
f 1/245/71 87/246/71 52/247/71
f 17/248/72 124/249/72 119/250/72
f 26/251/73 106/252/73 56/253/73
f 8/254/74 129/255/74 2/256/74
f 4/257/75 88/258/75 85/259/75
f 22/260/76 118/261/76 117/262/76
f 25/263/77 106/264/77 108/265/77
f 7/266/78 129/267/78 94/268/78
f 3/269/79 84/270/79 88/271/79
f 16/272/80 125/273/80 61/274/80
f 13/275/81 110/276/81 14/277/81
f 31/278/82 92/279/82 32/280/82
f 33/281/83 87/282/83 89/283/83
f 21/4/84 58/284/84 116/5/84
f 25/9/4 108/285/4 107/10/4
f 8/14/6 7/286/6 94/15/6
f 22/20/8 117/287/8 116/21/8
f 13/25/10 62/288/10 126/26/10
f 31/30/12 53/289/12 91/31/12
f 16/35/14 15/290/14 114/36/14
f 14/41/16 110/291/16 126/42/16
f 32/46/18 92/292/18 91/47/18
f 33/51/20 89/293/20 86/52/20
f 23/57/22 57/294/22 111/58/22
f 23/62/24 113/295/24 112/63/24
f 5/67/26 83/296/26 90/68/26
f 6/72/28 90/297/28 82/73/28
f 24/77/30 112/298/30 111/78/30
f 15/82/32 61/299/32 125/83/32
f 38/300/33 36/301/33 37/302/33
f 37/302/33 35/303/33 34/304/33
f 34/304/33 39/305/33 42/306/33
f 42/306/33 43/307/33 34/304/33
f 46/87/33 47/308/33 66/309/33
f 66/309/33 67/310/33 46/87/33
f 70/311/33 71/312/33 78/85/33
f 74/313/33 75/314/33 78/85/33
f 78/85/33 79/315/33 81/316/33
f 81/316/33 80/317/33 77/318/33
f 77/318/33 76/319/33 73/320/33
f 73/320/33 72/321/33 69/86/33
f 69/86/33 68/322/33 65/323/33
f 65/323/33 48/324/33 45/325/33
f 45/325/33 44/326/33 38/300/33
f 41/327/33 40/328/33 38/300/33
f 38/300/33 37/302/33 46/87/33
f 34/304/33 43/307/33 46/87/33
f 46/87/33 67/310/33 70/311/33
f 71/312/33 74/313/33 78/85/33
f 78/85/33 81/316/33 69/86/33
f 77/318/33 73/320/33 69/86/33
f 69/86/33 65/323/33 38/300/33
f 44/326/33 41/327/33 38/300/33
f 37/302/33 34/304/33 46/87/33
f 46/87/33 70/311/33 78/85/33
f 81/316/33 77/318/33 69/86/33
f 65/323/33 45/325/33 38/300/33
f 38/300/33 46/87/33 69/86/33
f 50/88/34 5/95/34 34/8/34
f 51/89/35 49/2/35 35/7/35
f 52/91/36 49/2/36 36/1/36
f 3/93/35 4/90/35 35/7/35
f 51/89/35 3/93/35 37/3/35
f 52/91/36 33/139/36 38/81/36
f 6/94/34 39/12/34 34/8/34
f 53/96/37 49/2/37 40/80/37
f 53/96/37 31/138/37 41/76/37
f 8/98/38 43/17/38 42/99/38
f 54/101/39 49/55/39 44/102/39
f 54/101/39 29/136/39 45/71/39
f 10/104/40 47/23/40 46/19/40
f 55/106/41 49/55/41 48/70/41
f 55/106/41 27/134/41 65/66/41
f 12/108/42 67/28/42 66/24/42
f 56/110/43 49/55/43 68/65/43
f 56/110/43 25/132/43 69/61/43
f 14/112/45 71/33/45 70/29/45
f 57/114/46 49/55/46 72/60/46
f 57/114/46 23/130/46 73/56/46
f 16/116/47 75/38/47 74/117/47
f 58/119/48 49/39/48 76/120/48
f 58/119/48 21/128/48 77/50/48
f 18/122/49 79/44/49 78/40/49
f 59/124/50 49/39/50 80/49/50
f 59/124/50 19/126/50 81/45/50
f 20/125/50 80/49/50 81/45/50
f 60/127/49 49/39/49 79/44/49
f 60/127/49 17/123/49 78/40/49
f 21/128/48 22/121/48 76/120/48
f 61/129/47 49/39/47 75/38/47
f 61/129/47 15/118/47 74/117/47
f 24/115/46 72/60/46 73/56/46
f 62/131/45 49/18/45 71/33/45
f 62/131/45 13/113/45 70/29/45
f 26/111/43 68/65/43 69/61/43
f 63/133/42 49/18/42 67/28/42
f 63/133/42 11/109/42 66/24/42
f 28/107/41 48/70/41 65/66/41
f 64/135/40 49/18/40 47/23/40
f 64/135/40 9/105/40 46/19/40
f 29/136/39 30/103/39 44/102/39
f 2/137/38 49/18/38 43/17/38
f 2/137/38 7/100/38 42/99/38
f 32/97/37 40/80/37 41/76/37
f 50/88/34 49/2/34 39/12/34
f 33/139/36 1/92/36 36/1/36
f 30/188/52 97/329/52 96/189/52
f 12/191/53 105/330/53 127/192/53
f 17/194/54 119/331/54 120/195/54
f 29/197/55 54/332/55 96/198/55
f 11/200/85 63/333/85 127/201/85
f 20/203/57 122/334/57 121/204/57
f 9/206/58 99/335/58 100/207/58
f 28/209/86 27/336/86 103/210/86
f 19/212/60 59/337/60 121/213/60
f 28/215/61 102/338/61 101/216/61
f 10/218/62 100/339/62 128/219/62
f 5/221/63 50/340/63 82/222/63
f 20/224/64 19/341/64 123/225/64
f 27/227/65 55/342/65 101/228/65
f 9/230/66 64/343/66 128/231/66
f 4/233/67 85/344/67 84/234/67
f 18/236/68 120/345/68 124/237/68
f 11/239/69 104/346/69 105/240/69
f 29/242/70 98/347/70 97/243/70
f 1/245/71 86/348/71 87/246/71
f 17/248/72 60/349/72 124/249/72
f 26/251/73 107/350/73 106/252/73
f 8/254/74 95/351/74 129/255/74
f 4/257/75 3/352/75 88/258/75
f 22/260/76 21/353/76 118/261/76
f 25/263/77 56/354/77 106/264/77
f 7/266/78 2/355/78 129/267/78
f 3/269/79 51/356/79 84/270/79
f 16/272/80 115/357/80 125/273/80
f 13/275/81 109/358/81 110/276/81
f 31/278/87 93/359/87 92/279/87
f 33/281/83 52/360/83 87/282/83
