# Blender v2.78 (sub 0) OBJ File: 'boulder.blend'
# www.blender.org
o Icosphere
v -2.202945 -2.760176 1.764681
v -2.128085 -2.114011 2.238395
v -3.453898 -2.165179 0.484811
v 1.430268 -3.503271 -0.584329
v -3.418056 -1.759063 -0.890137
v 1.801209 -3.238782 -1.398586
v 3.036106 -2.506121 -0.221501
v 3.733807 1.284307 -0.905477
v 3.559534 0.713517 1.157299
v -0.001795 0.000278 -3.861351
v 2.964142 -2.158336 -1.844721
v -1.144770 -3.512837 -1.848988
v -3.606725 0.010189 -1.802190
v -1.067512 3.305657 -1.729021
v 3.148793 2.277449 -1.929398
v 1.018971 -3.125333 1.640219
v -2.954001 -2.158482 1.845051
v -2.946448 2.132013 1.822117
v 1.156007 3.527245 1.847316
v 3.577705 0.000000 1.788862
v 0.014799 0.018084 3.868737
v -0.593175 -1.872100 -3.177502
v 1.573041 -1.151154 -3.189944
v 1.083397 -3.336378 -2.164060
v 3.395492 -0.001533 -2.101470
v 1.666731 1.216634 -3.335144
v -2.102919 0.000000 -3.402607
v -2.912528 -2.115716 -2.231559
v -0.620867 1.924137 -3.260050
v -2.750162 1.998005 -2.100750
v 1.086933 3.375479 -2.201324
v 3.947888 -1.294257 -0.000709
v 3.848642 1.247938 0.000125
v -0.005722 -4.183242 0.030626
v 2.442092 -3.361791 0.019331
v -3.635725 -1.198325 0.013254
v -2.483495 -3.444858 0.004610
v -2.370262 3.255910 -0.000288
v -3.574373 1.175673 0.003582
v 2.351221 3.236169 0.000002
v 0.000677 3.992141 0.000057
v 2.866676 -2.099691 2.182809
v -0.997885 -3.119039 2.049195
v -3.437058 -0.001325 2.136010
v -1.017066 3.111972 2.012612
v 2.771073 2.014046 2.117161
v 0.639276 -2.016988 3.402586
v 2.038811 -0.002973 3.312118
v -1.709789 -1.248888 3.420352
v -1.657040 1.203049 3.303113
v 0.622858 1.913471 3.272159
v 3.265297 -1.610281 1.047317
v 2.612801 -2.446590 0.758896
v 1.695086 -3.216710 0.866018
v 2.920862 -0.249954 2.432677
v -0.269092 -2.381205 2.971752
v 2.424054 -0.998293 2.748451
v -3.686536 0.439908 -0.735887
v 1.298665 -0.956228 3.213234
v 1.615857 -1.743767 2.908089
v 3.299547 -0.906576 1.683508
v 3.722824 -0.626289 0.903375
v -3.405161 -0.608211 1.003529
v -2.543103 -0.604549 2.742803
v -3.156795 -1.050743 1.949672
v -1.714899 -3.352034 1.084610
v -3.063264 -2.698543 0.981722
v -1.319150 -2.076940 2.648211
v -3.772697 -0.193677 -0.178711
v 1.894336 -2.794105 1.586645
v -3.638812 -1.648695 1.251151
v -2.508379 -1.509819 2.429680
v 2.544562 -2.774734 -1.212253
v -0.516334 -1.601629 3.370044
v 1.030604 -2.395581 2.526502
v 0.219414 -2.911150 2.072825
v 0.342976 -3.513072 1.064644
v 1.084163 -3.854992 0.257988
v -1.227101 -3.811442 0.039926
v -0.656510 -3.467391 0.718090
v -3.256909 -1.032655 -1.994804
v 3.660770 -0.501208 -0.721695
v 0.778772 -3.522373 -0.999424
v -3.590576 -0.724183 -1.164406
v 2.611606 -0.956702 -2.779446
v -3.199085 1.578788 -1.025766
v 3.297407 1.628105 1.057616
v -3.114823 -2.534153 -0.281019
v 3.364464 -2.034860 -0.931332
v 3.209608 -1.207467 -1.683567
v -2.508473 -1.034257 -2.850578
v 3.310745 1.232550 -1.736612
v 3.840434 0.475552 -0.832881
v -2.798032 -0.258151 -2.696915
v -2.945293 0.940316 -2.154615
v -3.438780 0.815913 -1.426369
v 2.750374 0.650520 -2.983490
v -2.901483 -2.435764 -1.137668
v 2.587834 1.556714 -2.525476
v 3.881271 0.155723 0.226955
v 2.074448 -1.839796 -2.766473
v -1.376371 -0.999991 -3.402612
v -1.099449 -2.563906 -2.680410
v 0.723508 -1.716623 -3.136874
v 0.202979 -2.649688 -2.792551
v 1.567559 -2.448109 -2.594650
v -0.090604 -3.568620 -1.760534
v 1.890833 0.079003 -3.202729
v -1.971108 -2.834339 -1.725395
v -0.869822 -0.249998 -3.701305
v -0.570050 -3.841519 -0.929305
v -1.496001 -3.526150 -0.923616
v -0.031030 -0.904475 -3.701262
v -0.464791 -3.141046 -2.368954
v -1.599302 -1.729008 -2.881651
v 0.900178 -0.288999 -3.653133
v 0.546371 3.761612 -1.093811
v 1.987468 2.670477 -2.235792
v 1.573190 3.338797 -0.790550
v 1.159145 2.073907 -2.904325
v 3.203384 1.941292 -0.899517
v 1.222180 3.761478 -0.009531
v 0.196688 2.557182 -2.685492
v 2.497436 2.713445 -1.171039
v 0.522434 1.607857 -3.384255
v -0.649767 2.796127 -2.373354
v -0.531387 3.592782 -0.869812
v -0.155403 3.296835 -1.615420
v -0.505303 3.512453 1.021829
v 1.480186 3.512667 0.923127
v 3.020272 2.388345 0.269162
v 2.322778 2.662716 1.275082
v 1.929155 2.701292 1.945912
v 0.560611 2.626262 2.509988
v -0.110698 3.383259 1.717391
v -1.295051 3.487335 0.262504
v -1.683773 3.200017 1.039702
v -1.521783 3.235227 -0.637553
v -2.888752 2.103052 0.007234
v -2.598035 2.432706 -0.749467
v 0.649670 3.771229 0.688199
v 1.495389 2.175311 2.713523
v -0.236253 2.387428 3.022063
v -2.001014 2.380847 2.148987
v -2.389975 0.582006 2.571311
v -0.804220 1.799442 3.279601
v -1.146241 2.342932 2.602893
v -1.833258 0.152013 3.089963
v -0.811579 0.284773 3.539536
v -0.860225 -0.620236 3.739908
v 0.788168 -0.252617 3.356916
v 0.031022 -0.904473 3.701119
v -3.190573 1.933824 0.882735
v -2.489223 2.699272 1.168290
v -2.588990 1.545453 2.520369
v 1.113309 0.999469 3.503502
v 0.029201 0.822239 3.404531
v 3.001190 0.937494 2.107007
v 2.164971 0.999993 2.915235
v -3.246906 0.939988 1.717557
v -3.784842 0.604823 0.761504
v -0.536992 0.923777 -3.575259
v -2.492252 1.026527 -2.819958
v 0.556449 0.711832 -3.695558
v -1.731470 2.138314 -2.501692
v -1.622447 0.864740 -3.259267
v -1.770019 2.705724 -1.589767
vn -0.3413 -0.5297 0.7765
vn -0.3513 -0.8164 0.4584
vn -0.3430 -0.5454 0.7648
vn -0.3663 -0.5222 0.7702
vn -0.5073 -0.7003 0.5023
vn -0.4240 -0.8116 0.4020
vn -0.3769 -0.4867 0.7880
vn -0.3564 -0.4784 0.8025
vn -0.9711 -0.2235 -0.0837
vn -0.9173 -0.3001 -0.2616
vn -0.7837 -0.6193 -0.0486
vn -0.8544 -0.5024 0.1324
vn -0.8109 -0.5232 -0.2620
vn -0.9294 -0.2312 -0.2876
vn -0.7905 -0.4524 -0.4128
vn -0.9744 -0.1929 -0.1150
vn -0.9316 -0.3635 0.0012
vn 0.2489 -0.9487 -0.1948
vn 0.2175 -0.9292 -0.2986
vn 0.1753 -0.9570 -0.2310
vn 0.2874 -0.9201 -0.2661
vn 0.6256 -0.5890 -0.5116
vn 0.5398 -0.6499 -0.5351
vn 0.5581 -0.7661 -0.3187
vn 0.2319 -0.9682 -0.0940
vn 0.1584 -0.7594 -0.6311
vn 0.0052 -0.8166 -0.5771
vn -0.0877 -0.7314 -0.6762
vn 0.1541 -0.9812 -0.1164
vn 0.8074 -0.4546 0.3762
vn 0.7365 -0.6081 0.2963
vn 0.7710 -0.5974 -0.2206
vn 0.6902 -0.7077 -0.1506
vn 0.6836 -0.6487 0.3345
vn 0.8011 -0.5979 -0.0264
vn 0.7119 0.5784 -0.3984
vn 0.7757 0.6269 -0.0732
vn 0.9856 0.1192 -0.1202
vn 0.8867 0.0760 -0.4561
vn 0.9716 0.0075 0.2363
vn 0.9550 0.0883 -0.2831
vn 0.9992 0.0233 -0.0315
vn 0.9771 -0.1905 -0.0952
vn 0.6603 0.1568 0.7345
vn 0.6934 0.1416 0.7065
vn 0.6931 0.1467 0.7058
vn 0.9564 0.0865 0.2789
vn 0.9540 0.0606 0.2936
vn 0.8530 0.2917 0.4327
vn 0.8346 0.3769 0.4018
vn 0.8869 0.2931 0.3570
vn 0.9906 0.1039 0.0889
vn -0.6363 -0.7291 -0.2520
vn -0.4974 -0.7324 -0.4650
vn -0.5436 -0.7674 -0.3400
vn -0.2689 -0.9414 -0.2037
vn 0.3455 -0.8481 0.4018
vn 0.7480 -0.4959 0.4410
vn 0.4230 -0.2736 0.8638
vn 0.8776 -0.3116 0.3642
vn -0.6875 0.2276 -0.6896
vn -0.8149 -0.5781 -0.0420
vn 0.8346 -0.3228 0.4463
vn -0.7201 -0.2513 0.6467
vn -0.4406 -0.7146 0.5434
vn 0.7867 -0.6173 0.0101
vn -0.9678 0.2373 0.0839
vn 0.6777 -0.1458 0.7207
vn 0.9425 -0.2483 0.2239
vn 0.7730 -0.0151 0.6342
vn 0.8695 -0.3539 0.3446
vn -0.4273 -0.8227 0.3748
vn -0.7472 -0.5169 0.4179
vn -0.3871 -0.5463 0.7427
vn 0.7237 -0.2946 0.6240
vn 0.3065 -0.8556 0.4170
vn 0.3450 -0.3579 0.8677
vn 0.4634 -0.7192 0.5178
vn -0.6658 -0.2992 0.6835
vn -0.9535 -0.2761 0.1211
vn -0.1830 -0.7153 0.6745
vn -0.8855 0.2860 0.3662
vn -0.7214 -0.1948 0.6646
vn -0.6676 -0.1902 0.7199
vn -0.6869 -0.2610 0.6783
vn 0.0505 -0.8548 0.5165
vn 0.7585 -0.2495 0.6021
vn -0.3851 -0.5138 0.7666
vn 0.3148 -0.7348 0.6009
vn 0.4786 -0.1429 0.8663
vn 0.3672 -0.2038 0.9076
vn 0.3619 -0.6911 0.6256
vn 0.1340 -0.8436 0.5201
vn 0.1873 -0.7983 0.5724
vn 0.1429 -0.8837 0.4457
vn -0.2019 -0.4956 0.8447
vn 0.1296 -0.8218 0.5549
vn 0.5323 -0.8394 0.1096
vn -0.9849 -0.0177 -0.1724
vn -0.2764 -0.9206 0.2758
vn 0.1351 -0.7658 0.6288
vn 0.1522 -0.7578 0.6344
vn 0.1521 -0.8520 0.5009
vn 0.3732 -0.8018 0.4667
vn -0.2315 -0.7751 0.5880
vn -0.7337 0.2032 -0.6484
vn -0.0195 -0.9685 0.2484
vn 0.0468 -0.9062 0.4203
vn 0.2477 -0.9130 0.3241
vn 0.2550 -0.7837 0.5665
vn -0.1212 -0.9675 0.2221
vn -0.7549 -0.1347 -0.6419
vn -0.2378 -0.7765 0.5835
vn 0.3334 -0.8883 -0.3159
vn -0.7545 -0.6037 -0.2573
vn -0.9303 0.1877 -0.3153
vn -0.9256 -0.2596 -0.2755
vn -0.9898 0.1422 0.0086
vn 0.8066 -0.3007 -0.5089
vn 0.8561 -0.1365 -0.4984
vn 0.9107 -0.1714 -0.3760
vn -0.7494 -0.0951 -0.6552
vn -0.7445 -0.1489 -0.6508
vn -0.9595 -0.0791 0.2705
vn -0.6866 -0.1140 -0.7180
vn 0.9313 -0.1336 -0.3387
vn 0.8783 -0.1059 -0.4663
vn -0.9832 -0.1530 -0.0993
vn -0.9967 -0.0642 -0.0487
vn -0.9181 0.3418 -0.2009
vn 0.9453 -0.2029 -0.2552
vn -0.9229 0.3607 -0.1347
vn -0.7931 0.3853 -0.4716
vn -0.7656 0.4708 -0.4384
vn -0.9415 0.2822 -0.1842
vn 0.7434 -0.1470 -0.6524
vn 0.9349 -0.2360 -0.2652
vn -0.9549 -0.2874 -0.0744
vn 0.6937 -0.6887 -0.2109
vn 0.5990 -0.3747 -0.7077
vn -0.4110 -0.2986 -0.8614
vn 0.3963 -0.2540 -0.8823
vn 0.4751 -0.5822 -0.6598
vn 0.1899 -0.4102 -0.8920
vn -0.0229 -0.9459 -0.3237
vn 0.1969 -0.5125 -0.8358
vn -0.1732 -0.3891 -0.9048
vn -0.1932 -0.2476 -0.9494
vn 0.1916 -0.4321 -0.8812
vn 0.3829 -0.1085 -0.9174
vn 0.3352 -0.1471 -0.9306
vn 0.1783 -0.3541 -0.9181
vn 0.4168 -0.7735 -0.4774
vn -0.5054 -0.8295 -0.2376
vn -0.3094 -0.4884 -0.8159
vn 0.1874 -0.8854 -0.4254
vn -0.2883 -0.9430 -0.1662
vn -0.3188 -0.3783 -0.8690
vn -0.1073 -0.5272 -0.8430
vn -0.1469 -0.6910 -0.7078
vn -0.3104 -0.3943 -0.8650
vn -0.5660 -0.4974 -0.6575
vn 0.4829 0.4625 -0.7436
vn 0.4207 -0.0227 -0.9069
vn -0.1315 -0.1686 -0.9769
vn 0.0869 -0.5128 -0.8541
vn -0.5399 -0.5400 -0.6457
vn 0.2816 -0.0560 -0.9579
vn 0.0734 -0.3811 -0.9216
vn 0.2162 -0.4080 -0.8870
vn 0.2168 -0.9577 -0.1894
vn -0.3178 -0.9296 -0.1866
vn -0.3202 -0.9377 -0.1350
vn 0.4488 -0.1251 -0.8848
vn -0.3782 -0.4589 -0.8040
vn 0.7517 0.3999 -0.5245
vn 0.1671 -0.1770 -0.9699
vn 0.8554 0.2000 -0.4778
vn -0.1076 -0.5612 -0.8206
vn -0.2168 -0.6374 -0.7394
vn 0.2819 -0.3569 -0.8906
vn 0.7349 -0.0112 -0.6781
vn 0.9064 0.1758 -0.3840
vn 0.0258 0.8263 -0.5627
vn -0.3323 0.7212 -0.6078
vn 0.1835 0.9764 -0.1142
vn 0.4367 0.8405 -0.3207
vn 0.4075 0.9057 -0.1169
vn 0.6011 0.7770 -0.1870
vn 0.4665 0.8462 -0.2576
vn 0.3307 0.4626 -0.8226
vn 0.0828 0.6090 -0.7888
vn -0.2565 0.8669 -0.4274
vn 0.6900 0.6981 0.1913
vn 0.0396 0.4766 -0.8783
vn 0.3995 0.5894 -0.7021
vn 0.0807 0.8066 -0.5855
vn -0.2082 0.9309 -0.3000
vn 0.9883 0.1527 -0.0025
vn -0.2296 0.8594 -0.4569
vn 0.3602 0.4119 -0.8370
vn 0.4061 0.8676 -0.2870
vn 0.4338 0.8596 -0.2702
vn 0.1333 0.6168 -0.7758
vn 0.2191 0.5386 -0.8136
vn 0.3707 0.4158 -0.8304
vn 0.3627 0.9078 -0.2104
vn 0.4177 0.9000 0.1246
vn 0.0521 0.9369 -0.3456
vn 0.7926 0.6006 -0.1056
vn 0.6474 0.7310 0.2156
vn 0.8123 0.5356 0.2309
vn 0.7989 0.5800 -0.1591
vn 0.7540 0.6442 -0.1283
vn -0.2444 0.9363 0.2522
vn 0.7351 0.6668 0.1223
vn -0.8025 0.5936 -0.0601
vn -0.2465 0.9426 0.2252
vn -0.1896 0.9404 0.2822
vn 0.5931 0.7293 0.3412
vn 0.7202 0.6084 0.3334
vn 0.6973 0.6477 0.3069
vn -0.8992 0.4033 -0.1698
vn -0.8081 0.5865 -0.0549
vn -0.2563 0.9413 0.2198
vn 0.6625 0.6620 0.3506
vn -0.0046 0.1229 0.9924
vn 0.5692 0.7695 0.2897
vn -0.0948 0.9184 0.3842
vn 0.2752 0.9579 0.0814
vn 0.1848 0.9730 0.1381
vn 0.2435 0.9518 0.1865
vn -0.1400 0.9562 0.2570
vn -0.1354 0.9560 0.2604
vn 0.0067 0.7260 0.6877
vn -0.0292 0.4246 0.9049
vn 0.3285 0.4091 0.8513
vn -0.1503 0.6483 0.7464
vn 0.0907 0.8410 0.5334
vn 0.2069 0.7229 0.6592
vn 0.0618 -0.1319 0.9893
vn -0.5050 0.7570 0.4146
vn 0.2052 0.7231 0.6595
vn 0.3567 -0.0552 0.9326
vn -0.4634 0.1851 0.8666
vn 0.2202 0.7422 0.6330
vn -0.4143 0.7847 0.4610
vn -0.3692 0.8141 0.4482
vn -0.5869 0.1895 0.7871
vn -0.3518 0.6064 0.7131
vn -0.1447 -0.3295 0.9330
vn 0.3608 0.0719 0.9299
vn 0.3898 0.6420 0.6602
vn -0.1794 0.4942 0.8506
vn -0.0714 -0.3736 0.9248
vn 0.0660 -0.1535 0.9859
vn -0.2983 0.2216 0.9284
vn 0.5102 -0.1450 0.8477
vn 0.7193 0.1755 0.6722
vn 0.4303 0.3853 0.8163
vn -0.6935 -0.0297 0.7198
vn -0.3363 0.6439 0.6872
vn 0.0502 0.1687 0.9844
vn -0.0910 0.1689 0.9814
vn 0.3968 0.4196 0.8164
vn 0.5992 0.3922 0.6980
vn -0.0748 -0.0968 0.9925
vn -0.3571 0.6057 0.7110
vn 0.9051 0.1899 0.3804
vn -0.1190 0.1831 0.9759
vn -0.0797 -0.3759 0.9232
vn -0.0143 -0.1790 0.9837
vn 0.4695 0.2732 0.8396
vn -0.3890 0.5843 0.7122
vn -0.3479 0.6373 0.6876
vn 0.4487 0.3933 0.8025
vn -0.4528 0.1667 0.8759
vn -0.5546 0.1444 0.8195
vn -0.4167 0.2178 0.8826
vn -0.3867 -0.1206 0.9143
vn -0.3834 0.5869 0.7132
vn -0.6608 -0.0971 0.7443
vn -0.3981 0.5918 0.7009
vn -0.5404 0.4305 0.7229
vn -0.7117 0.6936 -0.1113
vn -0.9070 0.4086 0.1023
vn -0.7247 -0.1138 0.6797
vn -0.8188 0.1580 0.5519
vn -0.7934 0.5872 -0.1600
vn -0.9539 0.2228 0.2009
vn -0.4553 0.8209 0.3447
vn -0.7462 0.6636 0.0539
vn -0.8658 0.3387 0.3684
vn -0.9540 -0.2746 0.1203
vn -0.9451 -0.2550 0.2044
vn -0.2680 -0.1947 -0.9435
vn 0.2846 0.0572 -0.9569
vn 0.1526 0.3295 -0.9317
vn -0.9755 0.1612 -0.1495
vn 0.2370 0.0402 -0.9707
vn -0.9134 0.4038 0.0505
vn -0.8629 0.3528 0.3618
vn -0.2840 0.1816 -0.9415
vn -0.1781 0.2564 -0.9500
vn -0.8238 0.1794 -0.5377
vn -0.4523 0.4270 -0.7830
vn -0.3774 0.4842 -0.7894
vn -0.2251 0.1669 -0.9599
vn -0.0210 0.2989 -0.9541
vn -0.0406 0.3265 -0.9443
vn -0.0542 0.2667 -0.9623
vn -0.0578 0.7109 -0.7010
vn -0.3058 0.6403 -0.7046
vn -0.8269 0.0056 -0.5623
vn -0.3701 0.3484 -0.8612
vn -0.2827 0.2666 -0.9214
vn -0.3300 0.4616 -0.8234
vn -0.3272 0.6684 -0.6680
vn -0.3883 0.9043 -0.1777
vn -0.7978 0.5943 -0.1014
vn -0.2986 0.9123 0.2804
vn -0.3687 0.9151 -0.1634
vn -0.4956 0.8415 -0.2149
vn -0.6581 0.7178 -0.2276
vn -0.3116 0.8008 -0.5115
vn -0.3565 0.9301 -0.0884
vn -0.6346 0.6439 -0.4275
vn -0.5524 0.7813 -0.2905
vn -0.4360 0.6687 -0.6022
vn -0.1503 0.9612 -0.2314
s off
f 1//1 2//1 17//1
f 1//2 66//2 43//2
f 1//3 43//3 68//3
f 1//4 68//4 2//4
f 1//5 17//5 67//5
f 66//6 1//6 67//6
f 2//7 68//7 72//7
f 17//8 2//8 72//8
f 3//9 71//9 36//9
f 88//10 3//10 36//10
f 3//11 88//11 67//11
f 71//12 3//12 67//12
f 5//13 98//13 88//13
f 5//14 84//14 81//14
f 98//15 5//15 81//15
f 5//16 36//16 84//16
f 5//17 88//17 36//17
f 4//18 6//18 35//18
f 4//19 78//19 83//19
f 6//20 4//20 83//20
f 78//21 4//21 35//21
f 6//22 24//22 106//22
f 73//23 6//23 106//23
f 6//24 73//24 35//24
f 6//25 83//25 24//25
f 107//26 114//26 105//26
f 107//27 12//27 114//27
f 107//28 105//28 24//28
f 107//29 24//29 83//29
f 7//30 53//30 35//30
f 7//31 32//31 52//31
f 7//32 35//32 73//32
f 89//33 7//33 73//33
f 7//34 52//34 53//34
f 7//35 89//35 32//35
f 8//36 92//36 121//36
f 33//37 8//37 121//37
f 8//38 33//38 93//38
f 92//39 8//39 93//39
f 100//40 62//40 32//40
f 100//41 32//41 82//41
f 100//42 93//42 33//42
f 100//43 82//43 93//43
f 158//44 55//44 20//44
f 158//45 46//45 159//45
f 158//46 159//46 55//46
f 9//47 100//47 33//47
f 9//48 62//48 100//48
f 9//49 87//49 158//49
f 20//50 9//50 158//50
f 9//51 33//51 87//51
f 9//52 20//52 62//52
f 112//53 109//53 12//53
f 112//54 37//54 98//54
f 112//55 98//55 109//55
f 112//56 79//56 37//56
f 16//57 54//57 70//57
f 53//58 70//58 35//58
f 60//59 42//59 57//59
f 20//60 61//60 62//60
f 95//61 94//61 13//61
f 88//62 37//62 67//62
f 32//63 62//63 52//63
f 72//64 49//64 64//64
f 72//65 68//65 49//65
f 53//66 52//66 42//66
f 71//67 63//67 36//67
f 55//68 48//68 57//68
f 61//69 42//69 52//69
f 61//70 57//70 42//70
f 61//71 52//71 62//71
f 67//72 37//72 66//72
f 71//73 67//73 17//73
f 56//74 68//74 43//74
f 61//75 20//75 55//75
f 54//76 35//76 70//76
f 48//77 59//77 57//77
f 60//78 47//78 75//78
f 44//79 65//79 64//79
f 65//80 44//80 63//80
f 74//81 49//81 68//81
f 63//82 71//82 65//82
f 71//83 17//83 65//83
f 17//84 72//84 65//84
f 72//85 64//85 65//85
f 76//86 77//86 16//86
f 61//87 55//87 57//87
f 68//88 56//88 74//88
f 75//89 16//89 70//89
f 47//90 60//90 59//90
f 60//91 57//91 59//91
f 60//92 75//92 70//92
f 76//93 43//93 77//93
f 56//94 76//94 75//94
f 56//95 75//95 47//95
f 56//96 47//96 74//96
f 76//97 56//97 43//97
f 70//98 53//98 42//98
f 69//99 58//99 84//99
f 37//100 79//100 66//100
f 76//101 16//101 75//101
f 60//102 70//102 42//102
f 77//103 34//103 78//103
f 78//104 35//104 54//104
f 34//105 80//105 79//105
f 95//106 27//106 94//106
f 80//107 43//107 66//107
f 80//108 66//108 79//108
f 77//109 54//109 16//109
f 77//110 78//110 54//110
f 80//111 77//111 43//111
f 94//112 81//112 13//112
f 77//113 80//113 34//113
f 83//114 78//114 34//114
f 98//115 37//115 88//115
f 30//116 95//116 86//116
f 84//117 13//117 81//117
f 69//118 39//118 58//118
f 85//119 25//119 90//119
f 85//120 90//120 11//120
f 89//121 11//121 90//121
f 91//122 28//122 81//122
f 81//123 94//123 91//123
f 69//124 36//124 63//124
f 94//125 27//125 91//125
f 89//126 90//126 82//126
f 89//127 82//127 32//127
f 69//128 84//128 36//128
f 58//129 13//129 84//129
f 58//130 39//130 86//130
f 82//131 25//131 93//131
f 86//132 96//132 58//132
f 13//133 96//133 95//133
f 96//134 86//134 95//134
f 96//135 13//135 58//135
f 97//136 25//136 85//136
f 82//137 90//137 25//137
f 98//138 81//138 28//138
f 73//139 11//139 89//139
f 101//140 85//140 11//140
f 27//141 102//141 91//141
f 101//142 23//142 85//142
f 106//143 101//143 11//143
f 106//144 23//144 101//144
f 12//145 107//145 111//145
f 106//146 24//146 105//146
f 113//147 22//147 102//147
f 113//148 102//148 110//148
f 105//149 104//149 106//149
f 108//150 85//150 23//150
f 108//151 97//151 85//151
f 116//152 23//152 104//152
f 106//153 11//153 73//153
f 109//154 98//154 28//154
f 22//155 115//155 102//155
f 34//156 111//156 83//156
f 111//157 34//157 79//157
f 115//158 28//158 91//158
f 103//159 22//159 105//159
f 115//160 109//160 28//160
f 115//161 22//161 103//161
f 115//162 103//162 109//162
f 99//163 97//163 26//163
f 108//164 116//164 26//164
f 113//165 110//165 10//165
f 113//166 104//166 22//166
f 103//167 12//167 109//167
f 108//168 26//168 97//168
f 104//169 105//169 22//169
f 104//170 23//170 106//170
f 107//171 83//171 111//171
f 79//172 112//172 111//172
f 112//173 12//173 111//173
f 116//174 108//174 23//174
f 115//175 91//175 102//175
f 92//176 97//176 99//176
f 116//177 113//177 10//177
f 92//178 25//178 97//178
f 103//179 105//179 114//179
f 103//180 114//180 12//180
f 116//181 104//181 113//181
f 92//182 99//182 15//182
f 92//183 93//183 25//183
f 128//184 123//184 126//184
f 128//185 31//185 123//185
f 41//186 122//186 117//186
f 119//187 40//187 124//187
f 119//188 31//188 117//188
f 119//189 118//189 31//189
f 119//190 124//190 118//190
f 120//191 31//191 118//191
f 125//192 29//192 123//192
f 128//193 117//193 31//193
f 121//194 15//194 124//194
f 120//195 123//195 31//195
f 120//196 99//196 26//196
f 128//197 126//197 14//197
f 127//198 41//198 117//198
f 121//199 92//199 15//199
f 117//200 128//200 127//200
f 118//201 15//201 99//201
f 40//202 119//202 122//202
f 119//203 117//203 122//203
f 123//204 120//204 125//204
f 120//205 26//205 125//205
f 120//206 118//206 99//206
f 124//207 15//207 118//207
f 130//208 40//208 122//208
f 128//209 14//209 127//209
f 131//210 33//210 121//210
f 132//211 130//211 19//211
f 131//212 87//212 33//212
f 131//213 124//213 40//213
f 131//214 121//214 124//214
f 137//215 45//215 129//215
f 132//216 46//216 87//216
f 39//217 139//217 86//217
f 129//218 136//218 137//218
f 45//219 135//219 129//219
f 132//220 40//220 130//220
f 132//221 87//221 131//221
f 132//222 131//222 40//222
f 38//223 140//223 139//223
f 140//224 86//224 139//224
f 136//225 38//225 137//225
f 19//226 133//226 132//226
f 157//227 51//227 146//227
f 133//228 46//228 132//228
f 141//229 41//229 129//229
f 141//230 19//230 130//230
f 41//231 141//231 122//231
f 141//232 130//232 122//232
f 141//233 129//233 135//233
f 141//234 135//234 19//234
f 134//235 135//235 45//235
f 146//236 51//236 143//236
f 19//237 134//237 133//237
f 134//238 19//238 135//238
f 143//239 134//239 45//239
f 143//240 51//240 134//240
f 151//241 48//241 156//241
f 144//242 45//242 137//242
f 142//243 134//243 51//243
f 152//244 47//244 59//244
f 145//245 44//245 64//245
f 142//246 133//246 134//246
f 144//247 137//247 154//247
f 144//248 154//248 18//248
f 64//249 148//249 145//249
f 144//250 147//250 45//250
f 152//251 74//251 47//251
f 152//252 59//252 151//252
f 142//253 46//253 133//253
f 149//254 21//254 157//254
f 150//255 49//255 74//255
f 151//256 59//256 48//256
f 21//257 149//257 150//257
f 152//258 151//258 21//258
f 159//259 48//259 55//259
f 159//260 46//260 142//260
f 148//261 50//261 145//261
f 147//262 144//262 146//262
f 149//263 157//263 146//263
f 149//264 146//264 50//264
f 51//265 156//265 142//265
f 151//266 157//266 21//266
f 151//267 156//267 157//267
f 45//268 147//268 143//268
f 46//269 158//269 87//269
f 156//270 51//270 157//270
f 74//271 152//271 150//271
f 152//272 21//272 150//272
f 48//273 159//273 156//273
f 146//274 144//274 50//274
f 147//275 146//275 143//275
f 159//276 142//276 156//276
f 148//277 49//277 150//277
f 148//278 64//278 49//278
f 148//279 150//279 149//279
f 148//280 149//280 50//280
f 155//281 50//281 144//281
f 155//282 145//282 50//282
f 155//283 144//283 18//283
f 160//284 44//284 145//284
f 154//285 139//285 153//285
f 154//286 38//286 139//286
f 160//287 145//287 155//287
f 160//288 155//288 18//288
f 153//289 139//289 39//289
f 153//290 160//290 18//290
f 154//291 137//291 38//291
f 154//292 153//292 18//292
f 161//293 44//293 160//293
f 161//294 63//294 44//294
f 63//295 161//295 69//295
f 110//296 102//296 27//296
f 164//297 26//297 116//297
f 164//298 125//298 26//298
f 161//299 39//299 69//299
f 164//300 116//300 10//300
f 161//301 153//301 39//301
f 161//302 160//302 153//302
f 166//303 162//303 110//303
f 166//304 110//304 27//304
f 30//305 163//305 95//305
f 165//306 29//306 166//306
f 165//307 163//307 30//307
f 162//308 10//308 110//308
f 162//309 29//309 125//309
f 125//310 164//310 162//310
f 164//311 10//311 162//311
f 126//312 123//312 29//312
f 126//313 165//313 14//313
f 163//314 27//314 95//314
f 166//315 27//315 163//315
f 166//316 29//316 162//316
f 165//317 166//317 163//317
f 165//318 126//318 29//318
f 136//319 41//319 127//319
f 140//320 30//320 86//320
f 136//321 129//321 41//321
f 136//322 127//322 138//322
f 140//323 167//323 30//323
f 138//324 14//324 167//324
f 167//325 165//325 30//325
f 138//326 127//326 14//326
f 167//327 14//327 165//327
f 138//328 167//328 140//328
f 138//329 140//329 38//329
f 136//330 138//330 38//330
